<svg width="30" height="30" viewBox="0 0 30 30" fill="none" xmlns="http://www.w3.org/2000/svg">
    <path d="M3.75 12.3176C3.75 11.0376 4.78764 10 6.06763 10V10C6.94548 10 7.74799 9.50402 8.14058 8.71885L9.16667 6.66667C9.67739 5.64522 10.7214 5 11.8634 5H18.1366C19.2786 5 20.3226 5.64522 20.8333 6.66667L21.8594 8.71885C22.252 9.50402 23.0545 10 23.9324 10V10C25.2124 10 26.25 11.0376 26.25 12.3176V18.5714C26.25 22.1218 23.3718 25 19.8214 25H10.1786C6.62817 25 3.75 22.1218 3.75 18.5714V12.3176Z" stroke="#222222" stroke-width="3"/>
    <circle cx="15" cy="16.25" r="3.5" stroke="#222222" stroke-width="3"/>
</svg>
