<svg width="30" height="30" viewBox="0 0 30 30" fill="none" xmlns="http://www.w3.org/2000/svg">
    <path d="M24.1573 7.22215L22.9101 8.0555L22.9101 8.0555L24.1573 7.22215ZM24.1573 20.2779L25.4046 21.1112L24.1573 20.2779ZM22.7779 21.6573L21.9445 20.4101L21.9445 20.4101L22.7779 21.6573ZM17.5 22.4983L17.4935 20.9983C16.6676 21.0019 16 21.6724 16 22.4983H17.5ZM17.5 22.5L18.8417 23.1708C18.9458 22.9625 19 22.7328 19 22.5H17.5ZM12.5 22.5H11C11 22.7328 11.0542 22.9625 11.1584 23.1708L12.5 22.5ZM12.5 22.4983H14C14 21.6724 13.3324 21.0019 12.5066 20.9983L12.5 22.4983ZM7.22215 21.6573L8.0555 20.4101L8.0555 20.4101L7.22215 21.6573ZM5.84265 20.2779L7.08986 19.4445L7.08986 19.4445L5.84265 20.2779ZM5.84265 7.22215L7.08986 8.0555L7.08986 8.0555L5.84265 7.22215ZM7.22215 5.84265L8.0555 7.08986L8.0555 7.08986L7.22215 5.84265ZM22.7779 5.84265L21.9445 7.08986L21.9445 7.08986L22.7779 5.84265ZM26.5 13.75C26.5 12.0256 26.5018 10.6195 26.387 9.4905C26.2696 8.33647 26.018 7.3069 25.4046 6.38879L22.9101 8.0555C23.1393 8.39852 23.3091 8.87729 23.4024 9.79412C23.4982 10.736 23.5 11.9632 23.5 13.75H26.5ZM25.4046 21.1112C26.018 20.1931 26.2696 19.1635 26.387 18.0095C26.5018 16.8805 26.5 15.4744 26.5 13.75H23.5C23.5 15.5368 23.4982 16.764 23.4024 17.7059C23.3091 18.6227 23.1393 19.1015 22.9101 19.4445L25.4046 21.1112ZM23.6112 22.9046C24.3209 22.4303 24.9303 21.8209 25.4046 21.1112L22.9101 19.4445C22.6548 19.8267 22.3267 20.1548 21.9445 20.4101L23.6112 22.9046ZM17.5066 23.9983C18.848 23.9924 19.986 23.9676 20.9426 23.8353C21.9234 23.6998 22.8094 23.4403 23.6112 22.9046L21.9445 20.4101C21.6446 20.6105 21.2403 20.7657 20.5318 20.8636C19.7993 20.9649 18.8492 20.9924 17.4935 20.9983L17.5066 23.9983ZM19 22.5V22.4983H16V22.5H19ZM11.1584 23.1708C12.7412 26.3365 17.2588 26.3365 18.8417 23.1708L16.1584 21.8291C15.6811 22.7837 14.3189 22.7837 13.8417 21.8291L11.1584 23.1708ZM11 22.4983V22.5H14V22.4983H11ZM6.38879 22.9046C7.19061 23.4403 8.07664 23.6998 9.0574 23.8353C10.014 23.9676 11.152 23.9924 12.4935 23.9983L12.5066 20.9983C11.1509 20.9924 10.2008 20.9649 9.46818 20.8636C8.75971 20.7657 8.35538 20.6105 8.0555 20.4101L6.38879 22.9046ZM4.59545 21.1112C5.06968 21.8209 5.67906 22.4303 6.38879 22.9046L8.0555 20.4101C7.67334 20.1548 7.34521 19.8267 7.08986 19.4445L4.59545 21.1112ZM3.5 13.75C3.5 15.4744 3.49819 16.8805 3.61303 18.0095C3.73043 19.1635 3.98199 20.1931 4.59545 21.1112L7.08986 19.4445C6.86066 19.1015 6.6909 18.6227 6.59763 17.7059C6.50181 16.764 6.5 15.5368 6.5 13.75H3.5ZM4.59545 6.38879C3.98199 7.3069 3.73043 8.33647 3.61303 9.4905C3.49819 10.6195 3.5 12.0256 3.5 13.75H6.5C6.5 11.9632 6.50181 10.736 6.59763 9.79412C6.6909 8.87729 6.86066 8.39852 7.08986 8.0555L4.59545 6.38879ZM6.38879 4.59545C5.67906 5.06968 5.06968 5.67906 4.59545 6.38879L7.08986 8.0555C7.34521 7.67334 7.67334 7.34521 8.0555 7.08986L6.38879 4.59545ZM13.75 3.5C12.0256 3.5 10.6195 3.49819 9.4905 3.61303C8.33647 3.73043 7.3069 3.98199 6.38879 4.59545L8.0555 7.08986C8.39852 6.86066 8.87729 6.6909 9.79412 6.59763C10.736 6.50181 11.9632 6.5 13.75 6.5V3.5ZM16.25 3.5H13.75V6.5H16.25V3.5ZM23.6112 4.59545C22.6931 3.98199 21.6635 3.73043 20.5095 3.61303C19.3805 3.49819 17.9744 3.5 16.25 3.5V6.5C18.0368 6.5 19.264 6.50181 20.2059 6.59763C21.1227 6.6909 21.6015 6.86066 21.9445 7.08986L23.6112 4.59545ZM25.4046 6.38879C24.9303 5.67906 24.3209 5.06968 23.6112 4.59545L21.9445 7.08986C22.3267 7.34521 22.6548 7.67334 22.9101 8.0555L25.4046 6.38879Z" fill="#33363F"/>
    <circle cx="20" cy="13.75" r="1.25" fill="#33363F" stroke="#33363F" stroke-linecap="round"/>
    <circle cx="15" cy="13.75" r="1.25" fill="#33363F" stroke="#33363F" stroke-linecap="round"/>
    <circle cx="10" cy="13.75" r="1.25" fill="#33363F" stroke="#33363F" stroke-linecap="round"/>
</svg>
