<svg width="30" height="30" viewBox="0 0 30 30" fill="none" xmlns="http://www.w3.org/2000/svg">
    <path d="M8.75 6.5H21.25C22.4709 6.5 23.2357 6.50319 23.7933 6.57815C24.3078 6.64732 24.4161 6.75193 24.4571 6.79289C24.4981 6.83386 24.6027 6.94224 24.6718 7.45669C24.7468 8.01429 24.75 8.77908 24.75 10V19.75H5.25V10C5.25 8.77908 5.25319 8.01429 5.32815 7.45669C5.39732 6.94224 5.50193 6.83386 5.54289 6.79289C5.58386 6.75193 5.69224 6.64732 6.20669 6.57815C6.76429 6.50319 7.52908 6.5 8.75 6.5Z" stroke="#33363F" stroke-width="3"/>
    <path d="M25.4167 19.75H4.58333C3.29467 19.75 2.25 20.7947 2.25 22.0833C2.25 23.8322 3.66777 25.25 5.41667 25.25H24.5833C26.3322 25.25 27.75 23.8322 27.75 22.0833C27.75 20.7947 26.7053 19.75 25.4167 19.75Z" stroke="#33363F" stroke-width="3"/>
</svg>
