<svg width="34" height="33" viewBox="0 0 34 33" fill="none" xmlns="http://www.w3.org/2000/svg">
    <path d="M2 20.6551V24.3333C2 28.0152 4.98477 31 8.66667 31V31C11.4281 31 13.6667 28.7614 13.6667 26V21.9195C13.6667 20.0786 15.1591 18.5862 17 18.5862V18.5862C18.8409 18.5862 20.3333 20.0786 20.3333 21.9195V26C20.3333 28.7614 22.5719 31 25.3333 31V31C29.0152 31 32 28.0152 32 24.3333V20.6551" stroke="#33363F" stroke-width="3" stroke-linecap="round"/>
    <path d="M20.3333 20.6552H32L27.4424 3.68202C27.1711 2.67185 26.3537 1.90078 25.3295 1.68886V1.68886C23.6113 1.33337 22 2.64542 22 4.4V6.17241" stroke="#33363F" stroke-width="3" stroke-linecap="round" stroke-linejoin="round"/>
    <path d="M13.6667 20.6552H2L6.55761 3.68202C6.82886 2.67185 7.64625 1.90078 8.67052 1.68886V1.68886C10.3887 1.33337 12 2.64542 12 4.4V6.17241" stroke="#33363F" stroke-width="3" stroke-linecap="round" stroke-linejoin="round"/>
</svg>
