<svg width="34" height="34" viewBox="0 0 34 34" fill="none" xmlns="http://www.w3.org/2000/svg">
    <path d="M9 22L17.3333 22" stroke="#33363F" stroke-width="3" stroke-linecap="round"/>
    <path d="M11.0833 17H8.99998" stroke="#33363F" stroke-width="3" stroke-linecap="round"/>
    <path d="M9 12L15.25 12" stroke="#33363F" stroke-width="3" stroke-linecap="round"/>
    <path d="M27 1.5V1.5C29.7614 1.5 32 3.73857 32 6.5L32 10.0714C32 10.8604 31.3604 11.5 30.5714 11.5L22 11.5M27 1.5V1.5C24.2386 1.5 22 3.73857 22 6.5L22 11.5M27 1.5L20.6667 1.5C11.8671 1.5 7.46734 1.5 4.73367 4.23367C2 6.96734 2 11.3671 2 20.1667L2 31.5L7 29.8333L12 31.5L17 29.8333L22 31.5L22 11.5" stroke="#33363F" stroke-width="3"/>
</svg>
